<svg width="627" height="567" viewBox="0 0 627 567" fill="none" xmlns="http://www.w3.org/2000/svg">
<path d="M119.513 446.822C127.713 448.466 136.711 447.575 145.01 447.575C165.648 447.575 186.329 448.334 206.96 447.91C237.115 447.29 267.124 445.314 297.299 445.314C322.463 445.314 347.798 446.949 372.935 445.733C399.217 444.462 425.56 445.347 451.788 443.221C489.651 440.152 528.023 439.18 565.953 441.169C579.616 441.886 593.219 440.793 606.887 440.793C610.297 440.793 616.518 442.091 619.513 440.039" stroke="#3F3E3B" stroke-width="10" stroke-linecap="round"/>
<path d="M113.223 9C112.518 34.0891 112.915 59.302 112.411 84.4192C111.257 141.86 116.265 199.436 117.822 256.82C118.75 291.017 118.634 325.189 118.813 359.329C118.932 382.182 121.102 404.886 120.459 427.764C120.296 433.569 120.147 438.873 119.993 444.362" stroke="#3F3E3B" stroke-width="10" stroke-linecap="round"/>
<path d="M113.428 6.12972C131.944 20.4523 150.88 34.6006 167.367 51.5979C185.376 70.164 203.699 88.6335 223.414 105.415C228.799 109.998 234.7 113.858 240.125 118.557C248.608 125.906 256.854 133.376 264.977 141.125C276.172 151.802 288.48 164.245 302.119 171.67C309.463 175.668 314.68 182.881 321.605 187.513C328.823 192.341 335.152 198.212 341.725 203.906C348.6 209.861 354.15 217.275 361.976 222.116C369.316 226.656 376.375 232.796 382.997 238.326C395.161 248.482 408.424 257.684 420.314 267.985C451.878 295.328 481.777 324.43 515.348 349.276C527.072 357.952 538.596 366.835 549.841 376.118C560.797 385.161 574.284 394.709 583.858 405.735C593.938 417.344 609.766 430.334 621.5 440.5" stroke="#3F3E3B" stroke-width="10" stroke-linecap="round"/>
<path d="M336.986 509.252C327.235 509.252 316.512 513.49 311.91 527.309C308.642 537.122 310.821 549.052 316.925 555.397C321.766 560.429 325.98 563.798 332.441 560.97C338.201 558.449 345.289 554.299 346.859 545.365" stroke="#3F3E3B" stroke-width="10" stroke-linecap="round"/>
<path d="M342.628 475.145C340.521 475.52 339.734 480.251 341.217 478.266C342.346 476.755 345.917 470.799 342.628 473.139" stroke="#3F3E3B" stroke-width="10" stroke-linecap="round"/>
<path d="M5 273.965C15.1255 272.568 22.3441 275.375 31.7997 275.375" stroke="#3F3E3B" stroke-width="10" stroke-linecap="round"/>
<path d="M47.7573 244.356C54.099 238.014 66.819 227.493 67.5045 243.259C68.359 262.914 68.915 282.469 68.915 302.187" stroke="#3F3E3B" stroke-width="10" stroke-linecap="round"/>
<path d="M49.168 305.009C60.6046 305.009 71.8621 305.009 83.0202 305.009" stroke="#3F3E3B" stroke-width="10" stroke-linecap="round"/>
<path d="M393.5 139.869C388.433 150.509 384.578 160.065 385.037 171.997C385.332 179.652 392.138 181.83 397.026 185.632C410.653 196.23 420.3 178.592 420.3 166.747C420.3 158.012 425.475 145.671 418.576 138.772C415.342 135.538 398.077 130.714 396.321 134.227" stroke="#3F3E3B" stroke-width="10" stroke-linecap="round"/>
<path d="M117 49.9453L140 28" stroke="#3F3E3B" stroke-width="10" stroke-linecap="round"/>
<path d="M117 86.9453L157 46.9453" stroke="#3F3E3B" stroke-width="10" stroke-linecap="round"/>
<path d="M117 127L178 66" stroke="#3F3E3B" stroke-width="10" stroke-linecap="round"/>
<path d="M117 175L200 87" stroke="#3F3E3B" stroke-width="10" stroke-linecap="round"/>
<path d="M120 221L227 108" stroke="#3F3E3B" stroke-width="10" stroke-linecap="round"/>
<path d="M125 274L258 141" stroke="#3F3E3B" stroke-width="10" stroke-linecap="round"/>
<path d="M120 340L291 169" stroke="#3F3E3B" stroke-width="10" stroke-linecap="round"/>
<path d="M125 398L325 195" stroke="#3F3E3B" stroke-width="10" stroke-linecap="round"/>
<path d="M134 444L357 221" stroke="#3F3E3B" stroke-width="10" stroke-linecap="round"/>
<path d="M181 448L385 249" stroke="#3F3E3B" stroke-width="10" stroke-linecap="round"/>
<path d="M246 444L422 274" stroke="#3F3E3B" stroke-width="10" stroke-linecap="round"/>
<path d="M301 444L456 302" stroke="#3F3E3B" stroke-width="10" stroke-linecap="round"/>
<path d="M359 444L485 326" stroke="#3F3E3B" stroke-width="10" stroke-linecap="round"/>
<path d="M416 444L515 352" stroke="#3F3E3B" stroke-width="10" stroke-linecap="round"/>
<path d="M485 440L548 378" stroke="#3F3E3B" stroke-width="10" stroke-linecap="round"/>
<path d="M548 435L581 405" stroke="#3F3E3B" stroke-width="10" stroke-linecap="round"/>
</svg>
